<svg width="32" height="32" viewBox="0 0 32 32" fill="none" xmlns="http://www.w3.org/2000/svg">
<rect width="32" height="32" fill="#201E1F"/>
<path d="M16 2.5L16.8954 10.9218L20.6173 3.31415L18.5783 11.5343L24.6776 5.6584L19.9501 12.6854L27.6913 9.25L20.8456 14.2364L29.2949 13.6557L21.1565 16L29.2949 18.3443L20.8456 17.7636L27.6913 22.75L19.9501 19.3146L24.6776 26.3416L18.5783 20.4657L20.6173 28.6859L16.8954 21.0782L16 29.5L15.1046 21.0782L11.3827 28.6859L13.4217 20.4657L7.32237 26.3416L12.0499 19.3146L4.30866 22.75L11.1544 17.7636L2.7051 18.3443L10.8435 16L2.7051 13.6557L11.1544 14.2364L4.30866 9.25L12.0499 12.6854L7.32237 5.6584L13.4217 11.5343L11.3827 3.31415L15.1046 10.9218L16 2.5Z" fill="#FDF0DD"/>
</svg>
